# xmcd
#
# Track frame offsets:
#	150
#	27647
#	44450
#	65597
#	80737
#	103975
#	121202
#	145060
#	166845
#	193287
#	214160
#	230700
#	250137
#	270865
#	295257
#
# Disc length: 4238 seconds
#
# Revision: 0
# Processed by: cddbd v1.4PL0 Copyright (c) Steve Scherf et al.
# Submitted via: dBpowerAMP V4.0
#
DISCID=e6108c0f
DTITLE=Various Artist - Drivetime Blues
DYEAR=1998
DGENRE=Blues
TTITLE0=Sweet little woman (Carey Bell)
TTITLE1=Blues hotel (Jordan Patterson)
TTITLE2=Girl You're Nice and clean (Buddy Guy)
TTITLE3=Stubborn woman (Tutu Jones)
TTITLE4=Bad company (Deitra Farr)
TTITLE5=Fast Woman(Andrew Jr.Boy Jones)
TTITLE6=Educated woman(Guitar Shorty No)
TTITLE7=Just Thought i had the blues (Larry Garner)
TTITLE8=Play The Blues on the moon (Byther Smith)
TTITLE9=Let's hope our love is not mistake (Johnie Marshall)
TTITLE10=Your girl's gone bad(Kenny Parker)
TTITLE11=Get out of my house (Percy Strother)
TTITLE12=Dollar in (Willie Edwards)
TTITLE13=Going to the Juke Joint (Loninie Shileds)
TTITLE14=Your tears Become My tears (Sweet Betty)
EXTD=
EXTT0=
EXTT1=
EXTT2=
EXTT3=
EXTT4=
EXTT5=
EXTT6=
EXTT7=
EXTT8=
EXTT9=
EXTT10=
EXTT11=
EXTT12=
EXTT13=
EXTT14=
PLAYORDER=
